<?xml version="1.0" encoding="UTF-8"?>
<svg id="Layer_1" xmlns="http://www.w3.org/2000/svg" version="1.1" viewBox="0 0 300 300">
  <!-- Generator: Adobe Illustrator 29.0.0, SVG Export Plug-In . SVG Version: 2.1.0 Build 186)  -->
  <defs>
    <style>
      .st0 {
        fill: #0b1313;
      }
    </style>
  </defs>
  <g>
    <path class="st0" d="M100,0h8.79C131.54,0,150,18.46,150,41.21v8.79h-8.79c-22.74,0-41.21-18.46-41.21-41.21V0h0Z"/>
    <path class="st0" d="M150,0h8.79C181.54,0,200,18.46,200,41.21v8.79h-8.79c-22.74,0-41.21-18.46-41.21-41.21V0h0Z" transform="translate(200 -150) rotate(90)"/>
  </g>
  <g>
    <path class="st0" d="M18.93,54.29h8.79c22.74,0,41.21,18.46,41.21,41.21v8.79h-8.79c-22.74,0-41.21-18.46-41.21-41.21v-8.79h0Z" transform="translate(-43.2 54.29) rotate(-45)"/>
    <path class="st0" d="M54.29,18.93h8.79c22.74,0,41.21,18.46,41.21,41.21v8.79h-8.79c-22.74,0-41.21-18.46-41.21-41.21v-8.79h0Z" transform="translate(54.29 -43.2) rotate(45)"/>
  </g>
  <g>
    <path class="st0" d="M0,150h8.79c22.74,0,41.21,18.46,41.21,41.21v8.79h-8.79C18.46,200,0,181.54,0,158.79v-8.79H0Z" transform="translate(-150 200) rotate(-90)"/>
    <path class="st0" d="M0,100h8.79c22.74,0,41.21,18.46,41.21,41.21v8.79h-8.79C18.46,150,0,131.54,0,108.79v-8.79H0Z"/>
  </g>
  <g>
    <path class="st0" d="M54.29,231.07h8.79c22.74,0,41.21,18.46,41.21,41.21v8.79h-8.79c-22.74,0-41.21-18.46-41.21-41.21v-8.79h0Z" transform="translate(-45.71 493.2) rotate(-135)"/>
    <path class="st0" d="M18.93,195.71h8.79c22.74,0,41.21,18.46,41.21,41.21v8.79h-8.79c-22.74,0-41.21-18.46-41.21-41.21v-8.79h0Z" transform="translate(-143.2 95.71) rotate(-45)"/>
  </g>
  <g>
    <path class="st0" d="M150,250h8.79c22.74,0,41.21,18.46,41.21,41.21v8.79h-8.79c-22.74,0-41.21-18.46-41.21-41.21v-8.79h0Z" transform="translate(350 550) rotate(-180)"/>
    <path class="st0" d="M100,250h8.79c22.74,0,41.21,18.46,41.21,41.21v8.79h-8.79c-22.74,0-41.21-18.46-41.21-41.21v-8.79h0Z" transform="translate(-150 400) rotate(-90)"/>
  </g>
  <g>
    <path class="st0" d="M231.07,195.71h8.79c22.74,0,41.21,18.46,41.21,41.21v8.79h-8.79c-22.74,0-41.21-18.46-41.21-41.21v-8.79h0Z" transform="translate(593.2 195.71) rotate(135)"/>
    <path class="st0" d="M195.71,231.07h8.79c22.74,0,41.21,18.46,41.21,41.21v8.79h-8.79c-22.74,0-41.21-18.46-41.21-41.21v-8.79h0Z" transform="translate(195.71 593.2) rotate(-135)"/>
  </g>
  <g>
    <path class="st0" d="M250,100h8.79c22.74,0,41.21,18.46,41.21,41.21v8.79h-8.79c-22.74,0-41.21-18.46-41.21-41.21v-8.79h0Z" transform="translate(400 -150) rotate(90)"/>
    <path class="st0" d="M250,150h8.79c22.74,0,41.21,18.46,41.21,41.21v8.79h-8.79c-22.74,0-41.21-18.46-41.21-41.21v-8.79h0Z" transform="translate(550 350) rotate(-180)"/>
  </g>
  <g>
    <path class="st0" d="M195.71,18.93h8.79c22.74,0,41.21,18.46,41.21,41.21v8.79h-8.79c-22.74,0-41.21-18.46-41.21-41.21v-8.79h0Z" transform="translate(95.71 -143.2) rotate(45)"/>
    <path class="st0" d="M231.07,54.29h8.79c22.74,0,41.21,18.46,41.21,41.21v8.79h-8.79c-22.74,0-41.21-18.46-41.21-41.21v-8.79h0Z" transform="translate(493.2 -45.71) rotate(135)"/>
  </g>
</svg>